<?xml version="1.0" standalone="no"?>
<!DOCTYPE svg PUBLIC "-//W3C//DTD SVG 20010904//EN"
 "http://www.w3.org/TR/2001/REC-SVG-20010904/DTD/svg10.dtd">
<svg version="1.0" xmlns="http://www.w3.org/2000/svg"
fill="#ddd" width="100px" height="100px" viewBox="0 0 256.000000 235.000000"
 preserveAspectRatio="xMidYMid meet">
<metadata>
Created by potrace 1.16, written by Peter Selinger 2001-2019
</metadata>
<g transform="translate(0.000000,235.000000) scale(0.100000,-0.100000)"
fill="#000000" stroke="none">
<path d="M0 1175 l0 -1175 1280 0 1280 0 0 1175 0 1175 -1280 0 -1280 0 0
-1175z m994 641 c-3 -8 -12 -17 -20 -20 -12 -4 -12 -2 -4 14 12 23 32 27 24 6z
m36 -26 c0 -5 -2 -10 -4 -10 -3 0 -8 5 -11 10 -3 6 -1 10 4 10 6 0 11 -4 11
-10z m490 -25 c0 -4 -6 -12 -13 -19 -11 -11 -13 -8 -13 19 0 27 2 30 13 19 7
-7 13 -15 13 -19z m50 20 c0 -8 -4 -15 -10 -15 -5 0 -7 7 -4 15 4 8 8 15 10
15 2 0 4 -7 4 -15z m-285 -15 c-3 -5 -13 -10 -21 -10 -8 0 -14 5 -14 10 0 6 9
10 21 10 11 0 17 -4 14 -10z m-48 -14 c0 -8 -6 -12 -15 -9 -11 5 -11 7 0 14 7
5 13 9 14 9 0 0 1 -6 1 -14z m-77 -55 c-5 -11 -15 -23 -22 -27 -7 -5 -8 -3 -2
7 5 8 9 17 10 22 3 15 4 17 14 17 7 0 7 -6 0 -19z m-30 5 c0 -2 -11 -6 -25 -8
-13 -3 -22 -1 -19 3 5 9 44 13 44 5z m300 -13 c0 -11 -3 -14 -8 -7 -4 6 -14
14 -22 17 -10 4 -8 6 8 6 15 1 22 -5 22 -16z m-46 -9 c3 -8 2 -12 -4 -9 -6 3
-10 10 -10 16 0 14 7 11 14 -7z m-87 -26 c-3 -8 -6 -5 -6 6 -1 11 2 17 5 13 3
-3 4 -12 1 -19z m-524 -5 c-7 -2 -21 -2 -30 0 -10 3 -4 5 12 5 17 0 24 -2 18
-5z m1010 0 c-7 -2 -21 -2 -30 0 -10 3 -4 5 12 5 17 0 24 -2 18 -5z m-1043
-18 c0 -2 -9 -9 -20 -15 -12 -6 -20 -7 -20 -1 0 5 8 12 18 14 9 3 18 5 20 6 1
0 2 -1 2 -4z m100 -3 c0 -5 -7 -9 -15 -9 -8 0 -12 4 -9 9 3 4 9 8 15 8 5 0 9
-4 9 -8z m457 -14 c-3 -8 -6 -5 -6 6 -1 11 2 17 5 13 3 -3 4 -12 1 -19z m514
-11 c-10 -9 -11 -8 -5 6 3 10 9 15 12 12 3 -3 0 -11 -7 -18z m-931 -7 c9 -16
8 -20 -6 -20 -10 0 -14 3 -11 7 4 3 2 12 -4 20 -8 9 -8 13 -1 13 6 0 16 -9 22
-20z m773 0 c-3 -11 -10 -23 -16 -27 -5 -3 -8 -2 -5 3 3 5 8 17 11 27 9 24 16
22 10 -3z m-589 -26 c3 -8 2 -12 -4 -9 -6 3 -10 10 -10 16 0 14 7 11 14 -7z
m756 -5 c0 -5 -8 -9 -17 -8 -11 0 -13 3 -5 6 6 2 9 10 6 15 -4 7 -2 8 4 4 7
-4 12 -11 12 -17z m-1087 -12 c24 -20 25 -23 8 -23 -11 0 -18 3 -15 7 2 4 -3
9 -11 13 -8 3 -15 10 -15 16 0 14 3 13 33 -13z m382 2 c11 -16 1 -19 -13 -3
-7 8 -8 14 -3 14 5 0 13 -5 16 -11z m-156 -18 c14 -11 19 -21 13 -25 -5 -3
-13 1 -16 10 -3 8 -10 13 -15 10 -5 -3 -11 1 -15 9 -7 20 4 19 33 -4z m631 9
c0 -5 -5 -10 -11 -10 -5 0 -7 5 -4 10 3 6 8 10 11 10 2 0 4 -4 4 -10z m-120
-20 c0 -5 -7 -7 -15 -4 -8 4 -15 8 -15 10 0 2 7 4 15 4 8 0 15 -4 15 -10z m90
0 c0 -5 -5 -10 -11 -10 -5 0 -7 5 -4 10 3 6 8 10 11 10 2 0 4 -4 4 -10z m-483
-6 c-3 -3 -12 -4 -19 -1 -8 3 -5 6 6 6 11 1 17 -2 13 -5z m-72 -14 c3 -5 1
-10 -4 -10 -6 0 -11 5 -11 10 0 6 2 10 4 10 3 0 8 -4 11 -10z m692 -12 c-3 -8
-6 -5 -6 6 -1 11 2 17 5 13 3 -3 4 -12 1 -19z m141 -3 c-3 -3 -9 2 -12 12 -6
14 -5 15 5 6 7 -7 10 -15 7 -18z m-1008 0 c0 -2 -9 -3 -19 -2 -11 0 -18 5 -15
9 4 6 34 0 34 -7z m617 -17 c-3 -8 -6 -5 -6 6 -1 11 2 17 5 13 3 -3 4 -12 1
-19z m40 0 c-3 -8 -6 -5 -6 6 -1 11 2 17 5 13 3 -3 4 -12 1 -19z m-449 -13
c-3 -3 -9 2 -12 12 -6 14 -5 15 5 6 7 -7 10 -15 7 -18z m832 11 c0 -3 -4 -8
-10 -11 -5 -3 -10 -1 -10 4 0 6 5 11 10 11 6 0 10 -2 10 -4z m-960 -16 c0 -5
-8 -10 -17 -10 -15 0 -16 2 -3 10 19 12 20 12 20 0z m290 0 c0 -5 -5 -10 -11
-10 -5 0 -7 5 -4 10 3 6 8 10 11 10 2 0 4 -4 4 -10z m-560 -11 c0 -5 -4 -8 -9
-5 -4 3 -16 -1 -27 -8 -10 -8 -25 -11 -32 -8 -10 3 -5 9 14 18 37 16 54 17 54
3z m170 -8 c0 -11 5 -23 10 -26 6 -3 10 -11 10 -17 0 -7 -5 -7 -14 1 -16 13
-27 61 -15 61 5 0 9 -9 9 -19z m273 -18 c4 -20 4 -40 1 -45 -12 -19 -19 -5
-19 37 0 54 10 59 18 8z m365 17 c-15 -23 -17 -23 -38 -10 -12 8 -11 10 8 10
12 0 22 5 22 10 0 6 5 10 10 10 6 0 5 -8 -2 -20z m481 6 c15 -8 20 -16 12 -20
-6 -4 -11 -2 -11 4 0 7 -7 10 -15 6 -8 -3 -15 -1 -15 5 0 6 -4 7 -10 4 -5 -3
-10 -1 -10 4 0 15 20 13 49 -3z m-989 -6 c0 -5 -5 -10 -11 -10 -5 0 -7 5 -4
10 3 6 8 10 11 10 2 0 4 -4 4 -10z m670 -6 c0 -2 -7 -4 -15 -4 -8 0 -15 4 -15
10 0 5 7 7 15 4 8 -4 15 -8 15 -10z m-1063 -41 c-3 -10 -5 -4 -5 12 0 17 2 24
5 18 2 -7 2 -21 0 -30z m673 33 c0 -3 -4 -8 -10 -11 -5 -3 -10 -1 -10 4 0 6 5
11 10 11 6 0 10 -2 10 -4z m345 -5 c3 -5 1 -12 -5 -16 -5 -3 -10 1 -10 9 0 18
6 21 15 7z m415 -21 c0 -16 -4 -30 -9 -30 -7 0 -8 19 -2 53 3 19 11 4 11 -23z
m-1055 -10 c3 -6 -1 -7 -9 -4 -18 7 -21 14 -7 14 6 0 13 -4 16 -10z m80 -1
c11 -16 1 -19 -13 -3 -7 8 -8 14 -3 14 5 0 13 -5 16 -11z m554 -16 c-13 -16
-25 -30 -27 -32 -1 -3 -7 1 -12 7 -6 7 -7 10 -4 8 3 -3 17 6 31 20 33 33 42
31 12 -3z m-675 9 c2 -4 -4 -8 -15 -8 -10 0 -19 4 -19 8 0 4 6 8 14 8 8 0 17
-4 20 -8z m86 -2 c0 -5 -2 -10 -4 -10 -3 0 -8 5 -11 10 -3 6 -1 10 4 10 6 0
11 -4 11 -10z m484 -6 c3 -8 2 -12 -4 -9 -6 3 -10 10 -10 16 0 14 7 11 14 -7z
m216 12 c0 -2 -9 -6 -20 -9 -11 -3 -18 -1 -14 4 5 9 34 13 34 5z m-387 -27 c4
-3 -6 -6 -22 -6 -27 0 -28 2 -13 13 9 7 19 9 22 6 3 -4 9 -9 13 -13z m-668
-27 c-6 -8 -35 12 -35 24 0 11 4 10 18 -3 10 -10 18 -19 17 -21z m409 13 c-6
-16 -24 -21 -24 -7 0 11 11 22 21 22 5 0 6 -7 3 -15z m416 7 c0 -5 -7 -9 -15
-9 -8 0 -12 4 -9 9 3 4 9 8 15 8 5 0 9 -4 9 -8z m490 -12 c-8 -5 -19 -10 -25
-10 -5 0 -3 5 5 10 8 5 20 10 25 10 6 0 3 -5 -5 -10z m-1275 -29 c-6 -5 -25
10 -25 20 0 5 6 4 14 -3 8 -7 12 -15 11 -17z m1235 19 c0 -5 -13 -16 -28 -24
-23 -12 -29 -12 -29 -1 0 7 6 11 13 8 6 -2 18 3 25 11 17 18 19 19 19 6z
m-754 -48 c-11 -10 -15 4 -8 28 l7 25 3 -23 c2 -13 1 -26 -2 -30z m229 30 c-3
-3 -11 0 -18 7 -9 10 -8 11 6 5 10 -3 15 -9 12 -12z m-363 -11 c-10 -7 -10
-47 1 -57 8 -8 -1 -24 -14 -24 -10 0 -13 83 -3 93 4 4 11 4 16 0 7 -3 7 -8 0
-12z m-252 -11 c0 -5 -8 -10 -17 -10 -15 0 -16 2 -3 10 19 12 20 12 20 0z
m490 6 c0 -3 -4 -8 -10 -11 -5 -3 -10 -1 -10 4 0 6 5 11 10 11 6 0 10 -2 10
-4z m70 -6 c0 -5 -2 -10 -4 -10 -3 0 -8 5 -11 10 -3 6 -1 10 4 10 6 0 11 -4
11 -10z m490 -6 c0 -2 -7 -4 -15 -4 -8 0 -15 4 -15 10 0 5 7 7 15 4 8 -4 15
-8 15 -10z m-985 -4 c-3 -5 -16 -10 -28 -9 -21 0 -21 1 -2 9 28 12 37 12 30 0z
m95 0 c13 -8 13 -10 -2 -10 -9 0 -20 5 -23 10 -8 13 5 13 25 0z m735 0 c-3 -5
-16 -10 -28 -10 -18 0 -19 2 -7 10 20 13 43 13 35 0z m95 0 c12 -8 11 -10 -7
-10 -12 0 -25 5 -28 10 -8 13 15 13 35 0z m-780 -80 c0 -5 -2 -10 -4 -10 -3 0
-8 5 -11 10 -3 6 -1 10 4 10 6 0 11 -4 11 -10z m620 6 c0 -3 -4 -8 -10 -11 -5
-3 -10 -1 -10 4 0 6 5 11 10 11 6 0 10 -2 10 -4z m-84 -36 c8 0 14 -4 14 -10
0 -5 -5 -10 -11 -10 -5 0 -7 -6 -4 -12 4 -7 -1 -4 -9 6 -9 11 -15 29 -15 40 1
17 2 18 6 4 2 -10 11 -18 19 -18z m-456 0 c0 -11 -7 -20 -15 -20 -8 0 -15 7
-15 16 0 8 5 12 10 9 6 -3 10 -1 10 4 0 6 2 11 5 11 3 0 5 -9 5 -20z m600 5
c0 -2 -7 -5 -15 -9 -9 -3 -15 0 -15 9 0 9 6 12 15 9 8 -4 15 -7 15 -9z m-635
-55 c3 -5 1 -10 -4 -10 -6 0 -11 5 -11 10 0 6 2 10 4 10 3 0 8 -4 11 -10z
m262 -27 c-3 -10 -5 -4 -5 12 0 17 2 24 5 18 2 -7 2 -21 0 -30z m211 12 c-3
-3 -9 2 -12 12 -6 14 -5 15 5 6 7 -7 10 -15 7 -18z m62 5 c8 -5 12 -11 10 -14
-3 -2 -14 2 -24 10 -22 15 -10 19 14 4z m-456 -33 c-4 -13 -9 -14 -19 -4 -11
10 -10 13 4 18 20 8 23 6 15 -14z m-174 -27 c0 -5 -5 -10 -11 -10 -5 0 -7 5
-4 10 3 6 8 10 11 10 2 0 4 -4 4 -10z m248 -77 c16 -16 16 -16 -3 -9 -11 4
-25 9 -32 10 -23 4 -26 16 -4 16 12 0 30 -8 39 -17z m172 -3 c0 -5 -11 -10
-25 -10 -14 0 -28 -7 -31 -15 -4 -8 -11 -15 -16 -15 -6 0 -5 6 2 15 7 8 9 15
4 16 -11 1 35 17 54 18 6 1 12 -3 12 -9z m-84 -87 c-6 -15 -46 -18 -46 -3 0 6
7 10 15 10 10 0 15 10 16 28 l0 27 10 -24 c5 -14 7 -31 5 -38z m-386 -453 c28
0 50 -3 50 -7 0 -5 -27 -8 -60 -8 -46 0 -59 3 -55 13 3 8 6 84 7 170 l2 157 3
-162 3 -163 50 0z m410 160 l0 -160 50 0 50 0 0 160 c0 100 4 160 10 160 6 0
10 -62 10 -167 l0 -168 -130 0 -130 0 0 58 0 57 -45 0 c-25 0 -45 5 -45 10 0
6 24 10 53 10 l52 0 -3 -60 -4 -60 56 0 56 0 2 98 c2 53 2 125 1 160 0 34 3
62 8 62 5 0 9 -71 9 -160z m311 120 c18 0 28 -4 24 -10 -4 -6 -20 -9 -36 -8
-26 2 -29 6 -28 33 1 23 3 25 6 8 3 -18 11 -23 34 -23z m149 -120 c0 -100 -4
-160 -10 -160 -6 0 -10 60 -10 160 0 100 4 160 10 160 6 0 10 -60 10 -160z
m336 74 c-4 -11 -29 -14 -107 -14 -56 0 -100 -2 -98 -4 3 -3 51 -6 107 -7
l102 -1 0 -106 c0 -58 -2 -103 -5 -100 -3 2 -7 47 -10 99 l-5 94 -87 0 -88 0
-5 -40 -6 -40 43 4 c27 2 43 -1 43 -8 0 -6 -19 -11 -44 -11 -26 0 -46 -5 -49
-12 -3 -7 -6 22 -6 64 l-1 77 103 3 c94 3 102 5 103 23 3 56 7 69 11 31 3 -21
2 -44 -1 -52z m-1381 66 c3 -5 1 -10 -4 -10 -6 0 -11 5 -11 10 0 6 2 10 4 10
3 0 8 -4 11 -10z m99 -34 c-3 -9 -10 -13 -15 -10 -5 3 -3 11 4 19 15 16 19 13
11 -9z m296 -1 c-13 -14 -28 -25 -34 -25 -13 0 35 49 48 49 5 1 -1 -10 -14
-24z m-613 8 c-4 -3 -1 -13 5 -22 10 -13 10 -14 -2 -3 -8 6 -22 12 -32 12 -10
0 -18 5 -18 10 0 6 12 10 27 10 14 0 23 -3 20 -7z m200 -18 c-15 -16 -19 -13
-11 9 3 9 10 13 15 10 5 -3 3 -11 -4 -19z m573 12 c0 -2 -12 -14 -27 -28 l-28
-24 24 28 c23 25 31 32 31 24z m-616 -41 c10 -16 12 -27 6 -31 -6 -4 -9 -3 -8
2 1 4 -3 18 -10 31 -17 30 -8 28 12 -2z m134 -21 c-6 -13 -15 -22 -19 -19 -5
2 -1 14 9 24 22 26 24 25 10 -5z m-248 -15 c6 -11 8 -20 6 -20 -3 0 -10 9 -16
20 -6 11 -8 20 -6 20 3 0 10 -9 16 -20z m708 13 c-10 -2 -28 -2 -40 0 -13 2
-5 4 17 4 22 1 32 -1 23 -4z m-181 -55 c-2 -13 -4 -5 -4 17 -1 22 1 32 4 23 2
-10 2 -28 0 -40z m-304 -9 c-4 -15 -8 -17 -14 -8 -6 11 4 28 18 29 0 0 -1 -9
-4 -21z m772 11 c3 -6 -1 -7 -9 -4 -18 7 -21 14 -7 14 6 0 13 -4 16 -10z
m-961 -36 c3 -8 2 -12 -4 -9 -6 3 -10 10 -10 16 0 14 7 11 14 -7z m1016 -28
c0 -5 -7 -3 -15 4 -8 7 -12 17 -9 22 7 10 24 -9 24 -26z m-850 0 c0 -8 -4 -17
-8 -20 -4 -2 -8 4 -8 15 0 10 4 19 8 19 4 0 8 -6 8 -14z m-134 -33 c-7 -7 -26
7 -26 19 0 6 6 6 15 -2 9 -7 13 -15 11 -17z m1028 1 c5 -14 4 -15 -9 -4 -17
14 -19 20 -6 20 5 0 12 -7 15 -16z m-922 -39 c-8 -16 -9 -16 -15 -1 -4 10 -3
15 3 11 6 -3 10 -1 10 6 0 7 3 10 6 6 3 -3 2 -13 -4 -22z m962 9 c3 -8 2 -12
-4 -9 -6 3 -10 10 -10 16 0 14 7 11 14 -7z m-648 -24 c24 0 44 -3 44 -7 0 -5
-27 -8 -60 -8 -44 0 -60 4 -60 14 0 8 6 11 16 7 9 -3 36 -6 60 -6z m714 -13
c22 -4 21 -5 -4 -4 -17 1 -31 9 -33 17 -3 10 -2 11 4 4 4 -7 19 -14 33 -17z
m179 11 c72 2 137 0 145 -5 8 -4 -50 -7 -132 -6 -178 2 -165 0 -156 15 4 7 9
8 11 3 2 -6 56 -9 132 -7z m-401 -5 c-15 -2 -42 -2 -60 0 -18 2 -6 4 27 4 33
0 48 -2 33 -4z m-848 -33 c6 0 8 6 4 13 -5 9 -4 9 6 0 7 -6 9 -16 6 -22 -12
-18 -45 -12 -56 10 -10 19 -10 20 9 10 11 -6 25 -11 31 -11z"/>
</g>
</svg>
